HIERARCHY
ROOT Hips
{
	OFFSET 0.00000 0.00000 0.00000
	CHANNELS 6 Xposition Yposition Zposition Zrotation Yrotation Xrotation 
	JOINT LHipJoint
	{
		OFFSET 0 0 0
		CHANNELS 3 Zrotation Yrotation Xrotation
		JOINT LeftUpLeg
		{
			OFFSET 1.62964 -1.40469 0.78906
			CHANNELS 3 Zrotation Yrotation Xrotation
			JOINT LeftLeg
			{
				OFFSET 2.29640 -6.30932 0.00000
				CHANNELS 3 Zrotation Yrotation Xrotation
				JOINT LeftFoot
				{
					OFFSET 2.29451 -6.30412 0.00000
					CHANNELS 3 Zrotation Yrotation Xrotation
					JOINT LeftToeBase
					{
						OFFSET 0.03611 -0.09921 1.56387
						CHANNELS 3 Zrotation Yrotation Xrotation
						End Site
						{
							OFFSET 0.00000 -0.00000 0.80291
						}
					}
				}
			}
		}
	}
	JOINT RHipJoint
	{
		OFFSET 0 0 0
		CHANNELS 3 Zrotation Yrotation Xrotation
		JOINT RightUpLeg
		{
			OFFSET -1.73712 -1.40469 0.78906
			CHANNELS 3 Zrotation Yrotation Xrotation
			JOINT RightLeg
			{
				OFFSET -2.28137 -6.26801 0.00000
				CHANNELS 3 Zrotation Yrotation Xrotation
				JOINT RightFoot
				{
					OFFSET -2.28681 -6.28298 0.00000
					CHANNELS 3 Zrotation Yrotation Xrotation
					JOINT RightToeBase
					{
						OFFSET -0.15927 -0.43759 1.61103
						CHANNELS 3 Zrotation Yrotation Xrotation
						End Site
						{
							OFFSET -0.00000 -0.00000 0.84630
						}
					}
				}
			}
		}
	}
	JOINT LowerBack
	{
		OFFSET 0 0 0
		CHANNELS 3 Zrotation Yrotation Xrotation
		JOINT Spine
		{
			OFFSET -0.04227 2.04338 -0.00225
			CHANNELS 3 Zrotation Yrotation Xrotation
			JOINT Spine1
			{
				OFFSET -0.02148 2.04482 -0.04273
				CHANNELS 3 Zrotation Yrotation Xrotation
				JOINT Neck
				{
					OFFSET 0 0 0
					CHANNELS 3 Zrotation Yrotation Xrotation
					JOINT Neck1
					{
						OFFSET 0.09180 1.44629 0.19359
						CHANNELS 3 Zrotation Yrotation Xrotation
						JOINT Head
						{
							OFFSET 0.00887 1.40645 0.14750
							CHANNELS 3 Zrotation Yrotation Xrotation
							End Site
							{
								OFFSET -0.00669 1.50671 0.03707
							}
						}
					}
				}
				JOINT LeftShoulder
				{
					OFFSET 0 0 0
					CHANNELS 3 Zrotation Yrotation Xrotation
					JOINT LeftArm
					{
						OFFSET 2.17674 1.86763 -0.06520
						CHANNELS 3 Zrotation Yrotation Xrotation
						JOINT LeftForeArm
						{
							OFFSET 4.65776 -0.00000 0.00000
							CHANNELS 3 Zrotation Yrotation Xrotation
							JOINT LeftHand
							{
								OFFSET 3.55539 -0.00000 0.00000
								CHANNELS 3 Zrotation Yrotation Xrotation
								JOINT LeftFingerBase
								{
									OFFSET 0 0 0
									CHANNELS 3 Zrotation Yrotation Xrotation
									JOINT LeftHandIndex1
									{
										OFFSET 0.70726 -0.00000 0.00000
										CHANNELS 3 Zrotation Yrotation Xrotation
										End Site
										{
											OFFSET 0.57022 -0.00000 0.00000
										}
									}
								}
								JOINT LThumb
								{
									OFFSET 0 0 0
									CHANNELS 3 Zrotation Yrotation Xrotation
									End Site
									{
										OFFSET 0.57892 -0.00000 0.57892
									}
								}
							}
						}
					}
				}
				JOINT RightShoulder
				{
					OFFSET 0 0 0
					CHANNELS 3 Zrotation Yrotation Xrotation
					JOINT RightArm
					{
						OFFSET -2.80694 1.55459 -0.32496
						CHANNELS 3 Zrotation Yrotation Xrotation
						JOINT RightForeArm
						{
							OFFSET -4.71925 -0.00000 -0.00000
							CHANNELS 3 Zrotation Yrotation Xrotation
							JOINT RightHand
							{
								OFFSET -3.56990 -0.00000 0.00000
								CHANNELS 3 Zrotation Yrotation Xrotation
								JOINT RightFingerBase
								{
									OFFSET 0 0 0
									CHANNELS 3 Zrotation Yrotation Xrotation
									JOINT RightHandIndex1
									{
										OFFSET -0.50776 -0.00000 0.00000
										CHANNELS 3 Zrotation Yrotation Xrotation
										End Site
										{
											OFFSET -0.40937 -0.00000 0.00000
										}
									}
								}
								JOINT RThumb
								{
									OFFSET 0 0 0
									CHANNELS 3 Zrotation Yrotation Xrotation
									End Site
									{
										OFFSET -0.41562 -0.00000 0.41562
									}
								}
							}
						}
					}
				}
			}
		}
	}
}
MOTION
Frames: 16
Frame Time: .0083333
-1.2022 19.6549 20.6545 0 0 0 0 0 0 -21 0 0 0 0 0 0 0 0 0 0 0 0 0 0 21 0 0 0 0 0 0 0 0 0 0 0 0 0 0 0 0 0 0 0 0 0 0 -16 0 0 21 0 0 11 0 0 0 -8 0 0 0 0 0 0 0 0 0 0 0 0 0 0 0 0 0 0 0 0 8 0 0 0 0 0 0 0 0 0 0 0 0 0 0 0 0 0
-1.2022 19.6549 20.6545 178.3580 -3.5930 -153.4450 0.0000 0.0000 0.0000 -20.9679 -15.1870 -20.0826 0.1221 2.2524 6.2038 0.0514 -5.4603 -5.2328 1.2108 -6.9806 -19.6579 0.0000 0.0000 0.0000 19.1061 13.6753 -20.9741 -0.1408 -2.4180 6.6625 -0.9422 5.1509 -17.3411 -0.3941 4.0307 -11.1631 -6.5664 -1.7484 -28.4213 -0.6496 -0.7754 -1.5974 2.5167 -0.9992 13.3091 -3.8142 -2.2160 -2.5967 6.4260 -3.9167 11.4483 2.4070 -1.9709 4.0325 -0.0000 -0.0000 0.0000 -86.0177 -3.0226 20.7697 9.8191 -16.4562 -1.4233 -0.0000 -0.0000 6.7533 22.6540 -12.5466 -5.1806 -7.1250 0.0000 -0.0000 -3.1890 16.4353 2.1598 -0.0000 -0.0000 0.0000 92.9554 -6.4432 4.9186 -17.8679 27.9877 -4.4871 0.0000 -0.0000 -4.0145 -7.8164 -58.7890 6.6962 7.1250 -0.0000 -0.0000 89.7576 -74.8339 -74.0217
-1.2033 19.6585 20.6561 178.3760 -3.5623 -153.5240 0.0000 0.0000 0.0000 -21.0103 -15.0616 -20.0540 0.1234 2.2645 6.2371 0.0486 -5.5260 -5.1946 1.3437 -7.3389 -20.7235 0.0000 0.0000 0.0000 19.1462 13.6147 -20.9320 -0.1418 -2.4265 6.6860 -0.9407 5.1870 -17.3255 -0.3951 4.0358 -11.1775 -6.5473 -1.7439 -28.3240 -0.6353 -0.7773 -1.5790 2.5237 -0.9962 13.2863 -3.7543 -2.3270 -2.6768 6.2473 -4.0253 11.3308 2.3366 -2.0231 4.0123 -0.0000 0.0000 0.0000 -86.0547 -3.0053 20.7861 9.8235 -16.4630 -1.4245 -0.0000 -0.0000 6.6138 22.8070 -12.4738 -5.1897 -7.1250 0.0000 -0.0000 -3.0795 16.4980 2.0813 -0.0000 0.0000 0.0000 92.9206 -6.4049 4.9111 -17.8137 27.9179 -4.4617 0.0000 -0.0000 -3.9625 -7.6137 -58.6815 6.5147 7.1250 -0.0000 -0.0000 89.3479 -74.7728 -73.5299
-1.2030 19.6595 20.6566 178.3820 -3.5295 -153.5730 0.0000 0.0000 0.0000 -21.0311 -14.9987 -20.0148 0.1222 2.2534 6.2065 0.0464 -5.5507 -5.1525 1.2475 -7.0816 -19.9572 0.0000 0.0000 0.0000 19.1688 13.5689 -20.9014 -0.1422 -2.4303 6.6965 -0.9559 5.1161 -17.4725 -0.4824 4.4537 -12.3567 -6.5461 -1.7182 -28.2154 -0.7066 -0.7512 -1.9405 2.6035 -0.9950 13.6010 -3.6890 -2.4611 -2.7644 6.0784 -4.1671 11.2139 2.2667 -2.0909 3.9949 0.0000 -0.0000 0.0000 -86.0882 -3.0098 20.8266 9.8096 -16.4412 -1.4206 -0.0000 -0.0000 6.5877 22.7602 -12.4837 -5.1819 -7.1250 0.0000 -0.0000 -3.1125 16.4920 2.1040 0.0000 -0.0000 0.0000 92.9161 -6.3820 4.8317 -17.7991 27.8991 -4.4548 0.0000 -0.0000 -3.9115 -7.5736 -58.7099 6.4821 7.1250 -0.0000 -0.0000 89.4510 -74.7575 -73.6192
-1.2007 19.6577 20.6539 178.3580 -3.5911 -153.5540 0.0000 0.0000 0.0000 -21.0069 -15.0762 -19.9879 0.1203 2.2362 6.1590 0.0472 -5.5755 -5.1860 1.0773 -6.5976 -18.5285 0.0000 0.0000 0.0000 19.1389 13.6865 -20.8280 -0.1402 -2.4131 6.6487 -0.9788 4.8390 -17.7047 -0.5792 4.8732 -13.5472 -6.6130 -1.7513 -28.3105 -0.6268 -0.7628 -1.5557 2.5743 -0.9928 13.3057 -3.5956 -2.5988 -2.8370 5.9065 -4.3163 11.0881 2.1913 -2.1622 3.9717 -0.0000 -0.0000 0.0000 -86.1033 -3.0078 20.8334 9.8063 -16.4360 -1.4196 -0.0000 -0.0000 6.6235 22.4476 -12.6073 -5.1527 -7.1250 0.0000 -0.0000 -3.3348 16.3910 2.2621 -0.0000 -0.0000 0.0000 92.9056 -6.3722 4.8321 -17.7946 27.8934 -4.4527 0.0000 -0.0000 -3.9252 -7.7952 -58.7892 6.6780 7.1250 -0.0000 -0.0000 89.7569 -74.8268 -74.0131
-1.2001 19.6550 20.6518 178.3420 -3.6227 -153.4590 0.0000 0.0000 0.0000 -20.9918 -15.1243 -20.0837 0.1212 2.2444 6.1816 0.0500 -5.5619 -5.2489 1.1312 -6.7552 -18.9922 0.0000 0.0000 0.0000 19.0964 13.7964 -20.8839 -0.1398 -2.4099 6.6399 -0.9664 4.8258 -17.5896 -0.5057 4.5585 -12.6534 -6.6493 -1.7763 -28.4248 -0.6279 -0.7838 -1.5779 2.5818 -1.0081 13.3341 -3.4832 -2.7325 -2.8936 5.5455 -4.4304 10.6638 2.2807 -2.2454 4.2766 0.0000 0.0000 0.0000 -86.0894 -3.0092 20.6947 9.7931 -16.4153 -1.4159 -0.0000 -0.0000 6.8388 22.1509 -12.7735 -5.1432 -7.1250 0.0000 -0.0000 -3.5475 16.2430 2.4183 0.0000 0.0000 0.0000 92.8879 -6.3844 4.8961 -17.7590 27.8474 -4.4361 0.0000 -0.0000 -3.9882 -8.1327 -58.9505 6.9799 7.1250 -0.0000 -0.0000 90.3832 -74.9273 -74.7740
-1.2016 19.6546 20.6520 178.3540 -3.5826 -153.4080 0.0000 0.0000 0.0000 -21.0042 -15.0743 -20.1757 0.1232 2.2625 6.2317 0.0519 -5.5085 -5.2671 1.2304 -7.0348 -19.8184 0.0000 0.0000 0.0000 19.1109 13.6901 -21.0082 -0.1408 -2.4186 6.6640 -0.9436 5.1094 -17.3570 -0.4203 4.1609 -11.5297 -6.6358 -1.7749 -28.4685 -0.6080 -0.7923 -1.6044 2.5918 -1.0130 13.3248 -3.4073 -2.8559 -2.9536 5.3653 -4.5602 10.5406 2.1967 -2.3076 4.2417 0.0000 -0.0000 0.0000 -86.1353 -3.0263 20.5030 9.7537 -16.3534 -1.4048 -0.0000 -0.0000 6.9724 22.0803 -12.8436 -5.1527 -7.1250 0.0000 -0.0000 -3.5994 16.1752 2.4591 0.0000 -0.0000 0.0000 92.8450 -6.4312 4.9319 -17.7592 27.8477 -4.4362 0.0000 -0.0000 -4.0110 -8.3605 -59.0944 7.1868 7.1250 -0.0000 -0.0000 90.9442 -74.9900 -75.4265
-1.2017 19.6555 20.6526 178.3680 -3.5477 -153.4070 0.0000 0.0000 0.0000 -20.9936 -15.0665 -20.1852 0.1240 2.2702 6.2529 0.0517 -5.4846 -5.2521 1.2468 -7.0796 -19.9513 0.0000 0.0000 0.0000 19.1243 13.6397 -21.0504 -0.1416 -2.4256 6.6833 -0.9395 5.2349 -17.3119 -0.4029 4.0752 -11.2882 -6.6274 -1.7705 -28.4744 -0.5862 -0.7905 -1.6015 2.6114 -1.0121 13.3312 -3.3245 -2.9840 -3.0476 5.1922 -4.6944 10.4032 2.1136 -2.3702 4.2085 0.0000 -0.0000 0.0000 -86.2077 -3.0174 20.5263 9.7450 -16.3397 -1.4023 -0.0000 -0.0000 6.7912 22.3156 -12.7369 -5.1708 -7.1250 0.0000 -0.0000 -3.4320 16.2655 2.3376 0.0000 -0.0000 0.0000 92.8163 -6.4142 4.8796 -17.7568 27.8446 -4.4351 0.0000 -0.0000 -3.9254 -8.2169 -59.0594 7.0604 7.1250 -0.0000 -0.0000 90.7978 -74.9456 -75.2250
-1.2007 19.6555 20.6517 178.3580 -3.5282 -153.4030 0.0000 0.0000 0.0000 -21.0070 -15.0192 -20.2007 0.1235 2.2657 6.2404 0.0488 -5.5404 -5.2069 1.3148 -7.2628 -20.4963 0.0000 0.0000 0.0000 19.0847 13.7611 -21.0114 -0.1411 -2.4207 6.6697 -0.9407 5.1080 -17.3300 -0.3942 4.0312 -11.1645 -6.6372 -1.7732 -28.4911 -0.6004 -0.7885 -1.5985 2.6017 -1.0122 13.3418 -3.2013 -3.1110 -3.0803 5.0141 -4.8336 10.2593 2.0221 -2.4361 4.1591 -0.0000 0.0000 0.0000 -86.2109 -2.9492 20.5518 9.7825 -16.3986 -1.4129 -0.0000 -0.0000 6.8513 22.3259 -12.5400 -5.0952 -7.1250 0.0000 -0.0000 -3.4161 16.4752 2.3112 -0.0000 0.0000 0.0000 92.8372 -6.4203 4.8740 -17.7475 27.8327 -4.4307 0.0000 -0.0000 -3.8711 -8.1137 -59.0795 6.9729 7.1250 -0.0000 -0.0000 90.8623 -74.9093 -75.2518
-1.2014 19.6557 20.6508 178.3150 -3.5490 -153.4190 0.0000 0.0000 0.0000 -21.0914 -14.9195 -20.2120 0.1231 2.2617 6.2294 0.0436 -5.6389 -5.1292 1.4047 -7.4969 -21.1959 0.0000 0.0000 0.0000 19.0244 13.8064 -20.9367 -0.1387 -2.4003 6.6132 -0.9420 5.0251 -17.3463 -0.3634 3.8723 -10.7176 -6.6572 -1.7755 -28.4679 -0.6404 -0.7827 -1.6011 2.5717 -1.0097 13.3267 -3.0707 -3.2466 -3.1133 4.8341 -4.9859 10.1200 1.9284 -2.5085 4.1113 0.0000 -0.0000 0.0000 -86.1494 -2.9029 20.4905 9.8114 -16.4441 -1.4211 -0.0000 -0.0000 7.2524 21.9387 -12.2261 -4.8754 -7.1250 0.0000 -0.0000 -3.6717 16.8484 2.4550 0.0000 -0.0000 0.0000 92.8785 -6.4597 4.8754 -17.7403 27.8233 -4.4274 0.0000 -0.0000 -3.8817 -8.1099 -59.1318 6.9733 7.1250 -0.0000 -0.0000 91.0565 -74.9030 -75.4469
-1.2021 19.6559 20.6516 178.2940 -3.5613 -153.4340 0.0000 0.0000 0.0000 -21.1095 -14.9710 -20.1794 0.1230 2.2609 6.2273 0.0447 -5.6327 -5.1541 1.3562 -7.3719 -20.8218 0.0000 0.0000 0.0000 19.0013 13.8022 -20.9201 -0.1392 -2.4049 6.6262 -0.9494 5.0610 -17.4145 -0.3649 3.8804 -10.7404 -6.6642 -1.7629 -28.4374 -0.6659 -0.7623 -1.5998 2.5562 -0.9996 13.3117 -2.9383 -3.3867 -3.1874 4.6501 -5.1417 9.9795 1.8328 -2.5816 4.0707 0.0000 -0.0000 0.0000 -86.1107 -2.9338 20.4441 9.8103 -16.4423 -1.4208 -0.0000 -0.0000 7.5571 21.6232 -11.8011 -4.6348 -7.1250 0.0000 -0.0000 -3.8756 17.3311 2.5510 0.0000 -0.0000 0.0000 92.9093 -6.4385 4.8102 -17.7041 27.7767 -4.4105 0.0000 -0.0000 -3.8852 -8.1571 -58.9962 7.0042 7.1250 -0.0000 -0.0000 90.5560 -74.9314 -74.9580
-1.2016 19.6559 20.6522 178.3220 -3.5365 -153.4560 0.0000 0.0000 0.0000 -21.0479 -15.0588 -20.1159 0.1222 2.2537 6.2074 0.0491 -5.5483 -5.2197 1.1855 -6.9098 -19.4483 0.0000 0.0000 0.0000 19.0476 13.8042 -20.9252 -0.1416 -2.4255 6.6831 -0.9539 5.0734 -17.4557 -0.3987 4.0542 -11.2292 -6.6416 -1.7488 -28.4014 -0.6688 -0.7540 -1.6084 2.5449 -0.9936 13.2846 -2.8041 -3.5086 -3.2298 4.4558 -5.2737 9.8324 1.7355 -2.6444 4.0195 -0.0000 0.0000 0.0000 -86.1058 -2.9358 20.3350 9.8143 -16.4486 -1.4219 -0.0000 -0.0000 7.5898 21.2797 -11.5520 -4.4598 -7.1250 0.0000 -0.0000 -4.1075 17.6271 2.6777 -0.0000 0.0000 0.0000 92.9169 -6.4598 4.8281 -17.6942 27.7639 -4.4059 0.0000 -0.0000 -3.9392 -8.2432 -58.8189 7.0654 7.1250 -0.0000 -0.0000 89.9014 -74.9752 -74.3281
-1.2011 19.6557 20.6516 178.3410 -3.5134 -153.4630 0.0000 0.0000 0.0000 -21.0335 -15.0394 -20.1138 0.1224 2.2557 6.2128 0.0502 -5.4802 -5.2112 1.2056 -6.9660 -19.6147 0.0000 0.0000 0.0000 19.0825 13.7599 -20.9590 -0.1433 -2.4393 6.7214 -0.9500 5.0873 -17.4189 -0.3982 4.0517 -11.2221 -6.6482 -1.7400 -28.4102 -0.6643 -0.7406 -1.6092 2.5582 -0.9883 13.2866 -2.6276 -3.6352 -3.2714 4.2536 -5.4146 9.6760 1.6281 -2.7107 3.9630 0.0000 -0.0000 0.0000 -86.1112 -2.9235 20.2744 9.8181 -16.4546 -1.4230 -0.0000 -0.0000 7.5934 20.9662 -11.4300 -4.3425 -7.1250 0.0000 -0.0000 -4.3236 17.7840 2.8045 0.0000 -0.0000 0.0000 92.9162 -6.4805 4.8222 -17.6922 27.7612 -4.4049 0.0000 -0.0000 -3.9820 -8.3295 -58.5495 7.1195 7.1250 -0.0000 -0.0000 88.8968 -75.0233 -73.3447
-1.1999 19.6552 20.6516 178.3570 -3.4872 -153.4450 0.0000 0.0000 0.0000 -21.0128 -15.0419 -20.1437 0.1235 2.2655 6.2399 0.0528 -5.4308 -5.2507 1.3354 -7.3173 -20.6587 0.0000 0.0000 0.0000 19.0869 13.7943 -21.0021 -0.1448 -2.4520 6.7567 -0.9494 5.0723 -17.4136 -0.4167 4.1437 -11.4813 -6.6685 -1.7340 -28.4540 -0.6542 -0.7233 -1.5982 2.5856 -0.9828 13.3178 -2.4333 -3.7675 -3.3326 4.0524 -5.5636 9.5136 1.5178 -2.7800 3.9075 -0.0000 -0.0000 0.0000 -86.1193 -2.9355 20.3125 9.8056 -16.4348 -1.4194 -0.0000 -0.0000 7.6078 21.0564 -11.4253 -4.3611 -7.1250 0.0000 -0.0000 -4.2602 17.7811 2.7634 -0.0000 -0.0000 0.0000 92.9134 -6.4507 4.7501 -17.6476 27.7036 -4.3842 0.0000 -0.0000 -3.9824 -8.5137 -58.0696 7.2403 7.1250 -0.0000 -0.0000 87.0927 -75.1086 -71.5921
-1.1976 19.6553 20.6515 178.3890 -3.4819 -153.4460 0.0000 0.0000 0.0000 -20.9530 -15.0574 -20.1305 0.1228 2.2594 6.2230 0.0531 -5.4082 -5.2491 1.3084 -7.2459 -20.4460 0.0000 0.0000 0.0000 19.0987 13.9853 -20.9202 -0.1436 -2.4418 6.7284 -0.9542 4.9067 -17.4698 -0.4718 4.4053 -12.2198 -6.6744 -1.7437 -28.4640 -0.6382 -0.7336 -1.5890 2.6021 -0.9882 13.3343 -2.2636 -3.8873 -3.3876 3.8525 -5.6953 9.3508 1.4140 -2.8419 3.8505 -0.0000 0.0000 0.0000 -86.1080 -2.9192 20.3965 9.7897 -16.4099 -1.4150 -0.0000 -0.0000 7.4345 21.3533 -11.6682 -4.5209 -7.1250 0.0000 -0.0000 -4.0598 17.4970 2.6581 -0.0000 0.0000 0.0000 92.9140 -6.4418 4.8047 -17.6938 27.7634 -4.4057 0.0000 -0.0000 -3.9500 -8.4004 -58.5734 7.1821 7.1250 -0.0000 -0.0000 88.9915 -75.0458 -73.4675
-1.1979 19.6556 20.6509 178.4020 -3.5416 -153.4620 0.0000 0.0000 0.0000 -20.9411 -15.0160 -20.1341 0.1225 2.2563 6.2145 0.0490 -5.4831 -5.1825 1.3827 -7.4404 -21.0268 0.0000 0.0000 0.0000 19.1125 14.0713 -20.8296 -0.1414 -2.4238 6.6783 -0.9993 4.5258 -17.9214 -0.6859 5.2948 -14.7513 -6.6533 -1.7563 -28.4503 -0.6254 -0.7564 -1.5803 2.5964 -0.9968 13.3406 -2.1168 -4.0132 -3.4484 3.6611 -5.8348 9.1880 1.3172 -2.9082 3.7958 -0.0000 0.0000 0.0000 -86.1315 -2.9238 20.4148 9.7487 -16.3456 -1.4034 -0.0000 -0.0000 7.2878 21.6208 -11.9074 -4.6752 -7.1250 0.0000 -0.0000 -3.8810 17.2181 2.5642 -0.0000 0.0000 0.0000 92.8863 -6.4253 4.8683 -17.6758 27.7401 -4.3973 0.0000 -0.0000 -4.0767 -8.6519 -58.5143 7.3934 7.1250 -0.0000 -0.0000 88.7859 -75.1349 -73.3554
